<svg xmlns="http://www.w3.org/2000/svg" viewBox="0 0 124.09 49.65"><defs><style>.cls-1{fill:#1b1b1b;}</style></defs><title>Element 2</title><g id="Ebene_2" data-name="Ebene 2"><g id="Ebene_1-2" data-name="Ebene 1"><path class="cls-1" d="M48.68,38.85A3.44,3.44,0,0,0,52.31,42a3.23,3.23,0,0,0,3-1.69h3.08a7.13,7.13,0,0,1-2.54,3.16,6.2,6.2,0,0,1-3.58,1.09,6.66,6.66,0,0,1,0-13.31,6.38,6.38,0,0,1,4.68,1.92,6.78,6.78,0,0,1,1.85,5.73Zm7.15-2.28a3.45,3.45,0,0,0-3.56-2.83,3.38,3.38,0,0,0-3.54,2.83Z"/><path class="cls-1" d="M61.88,33.9H59.8V31.59h2.08V27.23h3v4.36H67V33.9H64.87V44.12h-3Z"/><path class="cls-1" d="M70.41,38.85A3.44,3.44,0,0,0,74,42a3.22,3.22,0,0,0,3-1.69h3.09a7.13,7.13,0,0,1-2.54,3.16A6.2,6.2,0,0,1,74,44.51,6.66,6.66,0,0,1,74,31.2a6.4,6.4,0,0,1,4.68,1.92,6.78,6.78,0,0,1,1.85,5.73Zm7.15-2.28A3.45,3.45,0,0,0,74,33.74a3.38,3.38,0,0,0-3.54,2.83Z"/><path class="cls-1" d="M82.76,31.59h2.83v1.64a3.6,3.6,0,0,1,3.47-2v3h-.14c-2.1,0-3.17,1-3.17,3.15v6.75h-3Z"/><path class="cls-1" d="M90.88,27.23h3V29.9h-3Zm0,4.36h3V44.12h-3Z"/><path class="cls-1" d="M96.82,31.59h2.8c0,.55,0,1.07,0,1.67a4.11,4.11,0,0,1,3.91-2.06c4.08,0,4.86,3.15,4.86,5.37v7.55h-3v-6.8c0-1.87-.62-3.31-2.72-3.31s-2.85,1.44-2.85,3.2v6.91h-3Z"/><path class="cls-1" d="M124.09,42.64a7.08,7.08,0,0,1-1.16,4.43,7.16,7.16,0,0,1-5.75,2.58c-3.91,0-5.78-2.33-6.24-4.27h3.47a2.9,2.9,0,0,0,1.31,1.28,3.56,3.56,0,0,0,1.64.43,3.62,3.62,0,0,0,3.72-3.77v-1A4.47,4.47,0,0,1,117,44.51a6.33,6.33,0,0,1-6.4-6.6,6.35,6.35,0,0,1,6.4-6.68,4.62,4.62,0,0,1,4.06,2.05V31.59h3Zm-10.47-4.79a3.69,3.69,0,0,0,3.74,3.85A3.54,3.54,0,0,0,120,40.63,3.83,3.83,0,0,0,121.1,38a4.19,4.19,0,0,0-.91-2.69A3.42,3.42,0,0,0,117.36,34a3.72,3.72,0,0,0-3.74,3.81Z"/><polygon class="cls-1" points="16.48 40.83 15.27 44.14 24.38 44.14 23.15 40.83 16.48 40.83"/><polygon class="cls-1" points="17.37 38.12 22.23 38.12 19.77 31.27 17.37 38.12"/><path class="cls-1" d="M40.74,35.72a6.35,6.35,0,0,0-1.14-3.79,4.57,4.57,0,0,0-3.9-1.69H33.28V41.15h2.4C39.33,41.15,40.74,38.76,40.74,35.72Z"/><path class="cls-1" d="M44.14,33.58V0H14.64A14.65,14.65,0,0,0,0,14.64v29.5H11.57l6.85-16.89h3L28.1,44.14h1.78V27.25h5.36c2.1,0,5.16.21,7.17,2.92A7.89,7.89,0,0,1,44,33.58Z"/></g></g></svg>