<svg xmlns="http://www.w3.org/2000/svg" viewBox="0 0 1010.07 469.29"><defs><style>.cls-1{fill:#1b1b1b;}</style></defs><title>Element 2</title><g id="Ebene_2" data-name="Ebene 2"><g id="Teebeutel"><path class="cls-1" d="M352,172.46h48.44v198h79v42.59H352Z"/><path class="cls-1" d="M534.06,338c2,28.61,27.31,44.54,51.69,44.22,20.81,0,34.79-9.43,42.92-24.06h43.89C664.11,378,651.43,392.9,636.47,403a88.37,88.37,0,0,1-51,15.61c-54.95,0-94.29-44.54-94.29-94.29,0-50.72,39.66-95.26,93.64-95.26,26.66,0,50.07,10.08,66.65,27.31,21.78,22.43,29.91,50.39,26.33,81.61Zm101.76-32.52c-1.62-16.9-19.51-40.64-50.72-40.31-31.54,0-48.77,22.76-50.4,40.31Z"/><path class="cls-1" d="M894.31,413.06H851.72V387.38c-11.38,20.81-35.12,31.21-60.15,31.21-57.23,0-90.72-44.54-90.72-94.94,0-56.25,40.65-94.61,90.72-94.61,32.51,0,52.34,17.23,60.15,31.53v-26h42.59ZM743.45,324.63c0,22.11,15.93,54.29,54.29,54.29,23.74,0,39.35-12.35,47.47-28.61,4.23-7.8,6.18-16.25,6.83-25a55.59,55.59,0,0,0-4.87-25c-7.48-16.91-24.06-31.54-49.75-31.54-34.46,0-54,28-54,55.6Z"/><path class="cls-1" d="M939.19,267.4H917.08V234.56h22.11V224.48c0-53,40.32-56.24,70.88-56.57v32.84c-10.73,0-28.29,0-28.29,25v8.77h28.29V267.4H981.78V413.06H939.19Z"/><path class="cls-1" d="M149.6,0,0,414.94l225.46,54.35,105.92-139.2Zm54.71,207.94L269.05,325.5l-37.9,49.8Zm-59.5-40.2,38.07,237.4L69.11,377.71Z"/></g></g></svg>